#!OML:ASF E:\Steps\Project 1\Capture day 1\Session 2\Subject.ASF
:FULLY-SPECIFIED
:DEGREES
614
root 12.02 17.9477 7.27956 -152.093 -2.01308 177.541
lowerback -32.1976 -3.08307 -8.11151
upperback -3.73127 -2.42233 -0.631145
thorax 12.6449 -2.02566 2.57802
lowerneck -5.56418 -2.53611 0.209437
upperneck 3.07306 -3.5023 3.22626
head 1.97303 -1.63937 0.863251
rclavicle -6.4605e-015 4.77083e-015
rhumerus -35.9902 -12.894 -81.994
rradius 32.8317
rwrist -3.84892
rhand -8.0368 -51.5358
rfingers 7.12502
rthumb 17.8734 -80.7344
lclavicle -6.4605e-015 4.77083e-015
lhumerus -27.7925 -1.6188 85.3578
lradius 16.061
lwrist -9.23683
lhand -22.3223 -11.6255
lfingers 7.12502
lthumb 4.09756 18.3148
rfemur -21.7428 4.98038 20.5721
rtibia 10.1677
rfoot -22.3466 -10.4563
rtoes -27.477
lfemur -20.7087 -3.6685 -23.8845
ltibia 4.57656
lfoot -5.85715 -9.61898
ltoes -25.6918
615
root 12.0234 17.95 7.28733 -152.14 -1.96152 177.459
lowerback -32.0868 -3.07903 -8.20014
upperback -3.72892 -2.3902 -0.637543
thorax 12.5993 -2.01183 2.636
lowerneck -5.67321 -2.60841 0.260917
upperneck 3.28417 -3.60988 3.20628
head 2.06207 -1.68883 0.842489
rclavicle 5.31749e-015 2.3059e-014
rhumerus -36.0151 -12.6308 -82.2062
rradius 33.4192
rwrist -4.10454
rhand -8.0235 -51.2917
rfingers 7.12502
rthumb 17.8862 -80.4892
lclavicle 5.31749e-015 2.3059e-014
lhumerus -27.8161 -1.67029 85.3615
lradius 16.1245
lwrist -9.01844
lhand -22.3465 -11.4761
lfingers 7.12502
lthumb 4.07421 18.4647
rfemur -21.65 4.86168 20.4884
rtibia 10.0215
rfoot -22.2556 -10.3117
rtoes -27.5451
lfemur -20.6874 -3.7431 -23.9672
ltibia 4.57639
lfoot -5.87983 -9.51764
ltoes -26.2844
616
root 12.0246 17.9517 7.28912 -152.318 -1.92821 177.418
lowerback -31.9121 -3.06057 -8.19111
upperback -3.69196 -2.36593 -0.634748
thorax 12.5677 -1.99295 2.65197
lowerneck -5.70337 -2.55236 0.138071
upperneck 3.36573 -3.53065 3.21068
head 2.09599 -1.65042 0.867241
rclavicle 3.97569e-015 -7.15625e-015
rhumerus -36.1048 -12.2426 -82.4644
rradius 34.1213
rwrist -4.57389
rhand -8.31535 -50.7276
rfingers 7.12502
rthumb 17.6054 -79.9505
lclavicle 3.97569e-015 -7.15625e-015
lhumerus -27.8006 -1.1767 85.185
lradius 16.0603
lwrist -9.38271
lhand -22.3267 -11.483
lfingers 7.12502
lthumb 4.09326 18.4574
rfemur -21.3195 4.57528 20.4823
rtibia 9.71895
rfoot -22.0802 -10.0527
rtoes -27.7654
lfemur -20.4249 -3.83209 -24.0065
ltibia 4.42338
lfoot -5.824 -9.40264
ltoes -26.1621
617
root 12.0269 17.9543 7.29384 -152.418 -1.99961 177.38
lowerback -31.7663 -3.08829 -8.19914
upperback -3.66889 -2.3999 -0.610457
thorax 12.5392 -2.00267 2.67553
lowerneck -5.64576 -2.39283 -0.0602228
upperneck 3.14356 -3.29712 3.19039
head 2.01243 -1.54221 0.904277
rclavicle -1.3418e-015 2.82274e-014
rhumerus -36.2634 -11.7126 -82.7341
rradius 34.9871
rwrist -4.93271
rhand -7.91695 -51.3511
rfingers 7.12502
rthumb 17.9887 -80.5392
lclavicle -1.3418e-015 2.82274e-014
lhumerus -27.8902 -1.01874 85.1046
lradius 16.1761
lwrist -9.40228
lhand -22.4856 -12.0162
lfingers 7.12502
lthumb 3.93982 17.9272
rfemur -21.1219 4.35578 20.4998
rtibia 9.51458
rfoot -21.9654 -9.96027
rtoes -27.8669
lfemur -20.3109 -3.85511 -24.0318
ltibia 4.37079
lfoot -5.74793 -9.45974
ltoes -26.031
618
root 12.0296 17.9562 7.30154 -152.453 -2.05356 177.364
lowerback -31.671 -3.10509 -8.19614
upperback -3.62564 -2.41543 -0.592989
thorax 12.5523 -2.00444 2.69072
lowerneck -5.74837 -2.1098 -0.045822
upperneck 2.8244 -2.90002 2.7626
head 1.91003 -1.36159 0.779636
rclavicle 1.73937e-015 1.31198e-014
rhumerus -36.377 -11.1608 -83.0145
rradius 35.8154
rwrist -5.28521
rhand -7.52843 -51.7978
rfingers 7.12502
rthumb 18.3625 -80.9511
lclavicle 1.73937e-015 1.31198e-014
lhumerus -28.0589 -1.64933 85.2651
lradius 16.6216
lwrist -8.6046
lhand -22.9379 -12.5696
lfingers 7.12502
lthumb 3.50304 17.3814
rfemur -21.1051 4.24408 20.5154
rtibia 9.53521
rfoot -22.0541 -9.83371
rtoes -27.4492
lfemur -20.3477 -3.85939 -24.0367
ltibia 4.44378
lfoot -5.81104 -9.50414
ltoes -25.9066
619
root 12.0324 17.9574 7.31065 -152.534 -2.04019 177.389
lowerback -31.5605 -3.04442 -8.14286
upperback -3.5682 -2.34155 -0.59967
thorax 12.5642 -1.96186 2.68977
lowerneck -5.76257 -2.12669 -0.139498
upperneck 2.8532 -2.9217 2.93297
head 1.92777 -1.3677 0.848765
rclavicle -1.87355e-014 -1.47101e-014
rhumerus -36.4216 -10.774 -83.2505
rradius 36.4699
rwrist -5.79816
rhand -7.60575 -51.5474
rfingers 7.12502
rthumb 18.2882 -80.7077
lclavicle -1.87355e-014 -1.47101e-014
lhumerus -28.0894 -2.23054 85.4077
lradius 16.8821
lwrist -8.05775
lhand -23.2156 -12.5388
lfingers 7.12502
lthumb 3.23487 17.4165
rfemur -21.0686 4.28731 20.5294
rtibia 9.57035
rfoot -22.1273 -9.76861
rtoes -27.1507
lfemur -20.3397 -3.89206 -23.9843
ltibia 4.49804
lfoot -5.89757 -9.43671
ltoes -25.4136
620
root 12.0341 17.9591 7.31607 -152.664 -1.95413 177.398
lowerback -31.4278 -2.95858 -8.11255
upperback -3.54566 -2.23737 -0.61594
thorax 12.5231 -1.90749 2.70379
lowerneck -5.65618 -2.20497 -0.180285
upperneck 2.97321 -3.03095 3.09064
head 1.95398 -1.41728 0.902731
rclavicle -8.89561e-015 1.07344e-014
rhumerus -36.4896 -10.488 -83.4262
rradius 36.9402
rwrist -6.43925
rhand -7.94189 -51.2334
rfingers 7.12502
rthumb 17.9648 -80.4237
lclavicle -8.89561e-015 1.07344e-014
lhumerus -28.0381 -2.23138 85.3527
lradius 16.814
lwrist -8.09727
lhand -23.186 -12.3676
lfingers 7.12502
lthumb 3.26346 17.5872
rfemur -20.9566 4.37861 20.5095
rtibia 9.55127
rfoot -22.0959 -9.80133
rtoes -27.495
lfemur -20.2058 -3.91062 -23.9718
ltibia 4.43304
lfoot -5.8989 -9.31965
ltoes -25.5498
621
root 12.0344 17.9582 7.31841 -152.734 -1.85763 177.422
lowerback -31.4045 -2.91127 -8.06244
upperback -3.5104 -2.18448 -0.61289
thorax 12.5484 -1.87888 2.70249
lowerneck -5.71 -2.30066 -0.00262605
upperneck 3.21435 -3.17569 2.99985
head 2.03953 -1.4863 0.837396
rclavicle 6.4605e-015 -2.3059e-014
rhumerus -36.4376 -10.2346 -83.6287
rradius 37.1193
rwrist -7.21992
rhand -8.64506 -50.5087
rfingers 7.12502
rthumb 17.2881 -79.7597
lclavicle 6.4605e-015 -2.3059e-014
lhumerus -28.0636 -2.27947 85.2767
lradius 16.8763
lwrist -7.97457
lhand -23.0775 -12.3185
lfingers 7.12502
lthumb 3.36823 17.6346
rfemur -20.8444 4.41315 20.5092
rtibia 9.46671
rfoot -22.1078 -9.66913
rtoes -27.3264
lfemur -20.0885 -3.9609 -23.9514
ltibia 4.3264
lfoot -5.86703 -9.17933
ltoes -25.6198
622
root 12.038 17.9542 7.33195 -152.512 -1.85035 177.466
lowerback -31.5753 -2.92202 -8.00942
upperback -3.53489 -2.22061 -0.559089
thorax 12.5976 -1.8991 2.71089
lowerneck -5.73181 -2.30146 0.00596122
upperneck 3.32833 -3.17884 2.91452
head 2.07885 -1.48948 0.808233
rclavicle 4.27387e-015 2.06736e-014
rhumerus -36.274 -10.4587 -83.4924
rradius 37.4401
rwrist -5.6414
rhand -5.52819 -54.802
rfingers 7.12502
rthumb 20.2859 -83.7626
lclavicle 4.27387e-015 2.06736e-014
lhumerus -28.1144 -2.46566 85.2865
lradius 17.0024
lwrist -7.76851
lhand -23.1459 -12.5568
lfingers 7.12502
lthumb 3.30223 17.3973
rfemur -21.13 4.45626 20.5338
rtibia 9.46224
rfoot -22.1882 -9.56838
rtoes -27.0257
lfemur -20.4378 -3.93274 -23.8768
ltibia 4.43162
lfoot -5.85893 -9.19468
ltoes -25.4305
623
root 12.0363 17.9569 7.32716 -152.778 -1.56538 177.624
lowerback -31.4556 -2.76942 -7.82591
upperback -3.50123 -2.08392 -0.51338
thorax 12.5738 -1.82265 2.72304
lowerneck -5.48173 -2.21318 -0.236988
upperneck 3.29994 -3.04525 2.98562
head 2.02851 -1.42781 0.879601
rclavicle 6.95746e-016 2.38542e-015
rhumerus -36.349 -10.2717 -83.5348
rradius 37.6335
rwrist -5.69342
rhand -5.92356 -53.0911
rfingers 7.12502
rthumb 19.9058 -82.0916
lclavicle 6.95746e-016 2.38542e-015
lhumerus -28.2832 -2.42507 85.2808
lradius 17.0729
lwrist -7.72476
lhand -23.2499 -12.8283
lfingers 7.12502
lthumb 3.20173 17.1274
rfemur -20.8393 4.48441 20.6572
rtibia 9.39389
rfoot -22.2094 -9.30511
rtoes -27.2861
lfemur -19.9969 -3.94237 -23.777
ltibia 4.17677
lfoot -6.06967 -8.77959
ltoes -26.7576
624
root 12.05 17.9553 7.36879 -152.203 -1.98722 177.454
lowerback -31.3902 -2.997 -8.07937
upperback -3.76239 -2.37372 -0.427878
thorax 12.2826 -1.97449 2.83918
lowerneck -5.44222 -2.28534 -0.203033
upperneck 3.54783 -3.14785 2.89464
head 2.10178 -1.47921 0.841139
rclavicle 1.21259e-014 -2.0276e-014
rhumerus -36.4347 -10.1039 -83.6308
rradius 37.9373
rwrist -5.72749
rhand -6.05655 -53.8339
rfingers 7.12502
rthumb 19.778 -82.8477
lclavicle 1.21259e-014 -2.0276e-014
lhumerus -28.3652 -2.26233 85.1646
lradius 17.143
lwrist -7.74996
lhand -23.1589 -12.5461
lfingers 7.12502
lthumb 3.28965 17.4083
rfemur -21.6305 4.52137 20.5623
rtibia 9.5154
rfoot -22.1612 -9.86808
rtoes -27.4064
lfemur -21.1636 -3.70913 -23.8654
ltibia 4.83709
lfoot -5.94027 -9.49542
ltoes -26.7228
625
root 12.0495 17.9512 7.37584 -152.145 -1.89784 177.448
lowerback -31.538 -2.92698 -7.9961
upperback -3.6698 -2.27502 -0.483561
thorax 12.4364 -1.9268 2.76673
lowerneck -5.53071 -2.36804 -0.0834108
upperneck 3.60638 -3.26631 2.8343
head 2.1352 -1.53659 0.796178
rclavicle -5.31749e-015 -3.57812e-014
rhumerus -36.4595 -10.0166 -83.7323
rradius 38.4902
rwrist -5.2468
rhand -4.48266 -56.7263
rfingers 7.12502
rthumb 21.2904 -85.5768
lclavicle -5.31749e-015 -3.57812e-014
lhumerus -28.284 -2.24434 85.012
lradius 17.2337
lwrist -7.73698
lhand -23.0111 -12.2648
lfingers 7.12502
lthumb 3.43242 17.6873
rfemur -21.7291 4.41793 20.5584
rtibia 9.51802
rfoot -22.1781 -9.76486
rtoes -27.9497
lfemur -21.2152 -3.75092 -23.8994
ltibia 4.82306
lfoot -5.91831 -9.40019
ltoes -26.8394
626
root 12.0524 17.9478 7.38695 -152.013 -1.86397 177.393
lowerback -31.6474 -2.89094 -8.02791
upperback -3.66321 -2.20808 -0.520287
thorax 12.4807 -1.90115 2.76561
lowerneck -5.37706 -2.38061 -0.176678
upperneck 3.46582 -3.27664 2.98071
head 2.06665 -1.5412 0.860202
rclavicle 0 8.34896e-015
rhumerus -36.5994 -9.62911 -83.8958
rradius 39.0044
rwrist -5.61613
rhand -3.95653 -57.7122
rfingers 7.12502
rthumb 21.7957 -86.5049
lclavicle 0 8.34896e-015
lhumerus -28.3004 -2.21537 84.9097
lradius 17.3219
lwrist -7.78574
lhand -23.078 -12.3536
lfingers 7.12502
lthumb 3.36773 17.5995
rfemur -21.9306 4.26888 20.5106
rtibia 9.52077
rfoot -22.2168 -9.62728
rtoes -28.1099
lfemur -21.423 -3.78788 -23.9586
ltibia 4.91173
lfoot -5.97754 -9.38444
ltoes -26.6472
627
root 12.055 17.946 7.39516 -151.949 -1.85944 177.385
lowerback -31.7067 -2.86569 -8.01747
upperback -3.64129 -2.16948 -0.525086
thorax 12.5263 -1.88393 2.76761
lowerneck -5.23249 -2.34674 -0.346366
upperneck 3.24958 -3.21878 3.14597
head 1.9761 -1.51356 0.945645
rclavicle 1.52567e-014 1.43125e-014
rhumerus -36.636 -9.24405 -84.1291
rradius 39.22
rwrist -6.68878
rhand -6.00562 -54.1479
rfingers 7.12502
rthumb 19.827 -83.1566
lclavicle 1.52567e-014 1.43125e-014
lhumerus -28.2794 -1.99454 84.7618
lradius 17.314
lwrist -7.99623
lhand -23.5077 -12.7436
lfingers 7.12502
lthumb 2.95284 17.2157
rfemur -21.9957 4.14312 20.523
rtibia 9.43474
rfoot -22.2176 -9.42147
rtoes -27.6878
lfemur -21.5825 -3.7551 -23.9733
ltibia 5.00549
lfoot -6.05477 -9.41215
ltoes -26.7956
